HIERARCHY
ROOT Hips
{
	OFFSET 0.00000 0.00000 0.00000
	CHANNELS 6 Xposition Yposition Zposition Zrotation Yrotation Xrotation 
	JOINT LHipJoint
	{
		OFFSET 0 0 0
		CHANNELS 3 Zrotation Yrotation Xrotation
		JOINT LeftHip
		{
			OFFSET 1.57338 -1.94743 0.52196
			CHANNELS 3 Zrotation Yrotation Xrotation
			JOINT LeftKnee
			{
				OFFSET 2.60333 -7.15259 0.00000
				CHANNELS 3 Zrotation Yrotation Xrotation
				JOINT LeftAnkle
				{
					OFFSET 2.77855 -7.63400 0.00000
					CHANNELS 3 Zrotation Yrotation Xrotation
					JOINT LeftToe
					{
						OFFSET 0.19847 -0.54529 2.28466
						CHANNELS 3 Zrotation Yrotation Xrotation
						End Site
						{
							OFFSET 0.00000 -0.00000 1.17993
						}
					}
				}
			}
		}
	}
	JOINT RHipJoint
	{
		OFFSET 0 0 0
		CHANNELS 3 Zrotation Yrotation Xrotation
		JOINT RightHip
		{
			OFFSET -1.61527 -1.94743 0.52196
			CHANNELS 3 Zrotation Yrotation Xrotation
			JOINT RightKnee
			{
				OFFSET -2.53829 -6.97390 0.00000
				CHANNELS 3 Zrotation Yrotation Xrotation
				JOINT RightAnkle
				{
					OFFSET -2.80762 -7.71387 0.00000
					CHANNELS 3 Zrotation Yrotation Xrotation
					JOINT RightToe
					{
						OFFSET -0.30536 -0.83898 2.28801
						CHANNELS 3 Zrotation Yrotation Xrotation
						End Site
						{
							OFFSET -0.00000 -0.00000 1.21323
						}
					}
				}
			}
		}
	}
	JOINT lowerback
	{
		OFFSET 0 0 0
		CHANNELS 3 Zrotation Yrotation Xrotation
		JOINT Chest
		{
			OFFSET -0.04381 1.99497 -0.19778
			CHANNELS 3 Zrotation Yrotation Xrotation
			JOINT Chest2
			{
				OFFSET -0.01959 2.01295 -0.04372
				CHANNELS 3 Zrotation Yrotation Xrotation
				JOINT lowerneck
				{
					OFFSET 0 0 0
					CHANNELS 3 Zrotation Yrotation Xrotation
					JOINT Neck
					{
						OFFSET -0.05459 1.76913 0.09708
						CHANNELS 3 Zrotation Yrotation Xrotation
						JOINT Head
						{
							OFFSET 0.09461 1.77368 -0.11172
							CHANNELS 3 Zrotation Yrotation Xrotation
							End Site
							{
								OFFSET 0.03812 1.78157 -0.04834
							}
						}
					}
				}
				JOINT LeftCollar
				{
					OFFSET 0 0 0
					CHANNELS 3 Zrotation Yrotation Xrotation
					JOINT LeftShoulder
					{
						OFFSET 3.50922 1.24034 -0.28866
CHANNELS 3 Zrotation Xrotation Yrotation
						JOINT LeftElbow
						{
OFFSET 0 -5.401880 0.000000
CHANNELS 3 Zrotation Xrotation Yrotation
							JOINT LeftWrist
							{
OFFSET 0 -3.685590 0.000000
CHANNELS 3 Zrotation Xrotation Yrotation
								JOINT lhand
								{
									OFFSET 0 0 0
CHANNELS 3 Zrotation Xrotation Yrotation
									JOINT LFingers
									{
OFFSET 0 -0.617530 0.000000
CHANNELS 3 Zrotation Xrotation Yrotation
										End Site
										{
OFFSET 0 -0.497870 0.000000
										}
									}
								}
								JOINT LThumb
								{
OFFSET 0 0.000000 0.000000
CHANNELS 3 Zrotation Xrotation Yrotation
									End Site
									{
OFFSET 0 -0.505470 0.505470
									}
								}
							}
						}
					}
				}
				JOINT RightCollar
				{
					OFFSET 0 0 0
					CHANNELS 3 Zrotation Yrotation Xrotation
					JOINT RightShoulder
					{
						OFFSET -2.95373 1.39649 -0.27346
CHANNELS 3 Zrotation Xrotation Yrotation
						JOINT RightElbow
						{
OFFSET 0 -6.106700 -0.000000
CHANNELS 3 Zrotation Xrotation Yrotation
							JOINT RightWrist
							{
OFFSET 0 -3.630520 0.000000
CHANNELS 3 Zrotation Xrotation Yrotation
								JOINT rhand
								{
									OFFSET 0 0 0
CHANNELS 3 Zrotation Xrotation Yrotation
									JOINT RFingers
									{
OFFSET 0 -0.583850 0.000000
CHANNELS 3 Zrotation Xrotation Yrotation
										End Site
										{
OFFSET 0 -0.470710 0.000000
										}
									}
								}
								JOINT RThumb
								{
OFFSET 0 0.000000 0.000000
CHANNELS 3 Zrotation Xrotation Yrotation
									End Site
									{
OFFSET 0 -0.477900 0.477900
									}
								}
							}
						}
					}
				}
			}
		}
	}
}
MOTION
Frames: 4
Frame Time: 0.008333333333333333
7.160175 18.924688 -2.064654 188.136060 -41.075741 -175.145728 0.000000 0.000000 0.000000 -14.496047 -5.712243 -20.973501 2.295925 9.456970 27.235495 0.727320 -0.403805 -15.984341 0.073148 1.739599 4.786763 0.000000 0.000000 0.000000 7.363358 25.510734 -21.028196 -1.882664 -8.617163 24.605012 0.921098 -16.946833 -9.472768 -0.000187 0.017784 -0.048931 -7.142750 2.462050 12.104608 -6.056371 1.536755 6.514886 -2.508728 0.323597 0.020546 -6.653235 5.726805 -6.107423 3.488638 6.953208 24.722135 2.814282 2.564906 8.276240 0.000000 0.000000 0.000000 -0.257797 -27.037782 -52.461939 37.491788 -46.511586 16.595944 59.623968 -42.860243 -42.326719 0.000000 0.000000 0.000000 -7.125000 0.000000 0.000000 89.105214 -81.117012 98.084053 0.000000 0.000000 0.000000 -12.725856 -11.777860 35.304905 -131.298614 -52.458139 -94.859247 -36.193299 -44.234517 -3.107567 0.000000 0.000000 0.000000 7.125000 0.000000 0.000000 -7.262307 26.120127 -3.348649
7.153580 18.863984 -2.328568 186.545928 -39.651372 -174.416980 0.000000 0.000000 0.000000 -15.627910 -4.037440 -20.834736 2.445465 9.738072 28.132630 0.824164 0.008258 -17.164262 0.001340 0.235875 0.648130 0.000000 0.000000 0.000000 5.521699 26.750962 -21.108016 -1.545070 -7.845852 22.247018 1.178812 -18.977072 -10.043494 -0.003659 0.388702 -1.068019 -7.680172 3.082151 12.327664 -6.172532 2.213121 6.789682 -2.426448 0.609519 0.172952 -6.934972 5.386863 -6.403670 3.829359 6.534199 24.368781 2.945760 2.411533 8.208418 0.000000 0.000000 0.000000 1.596994 -25.707852 -49.016455 34.156808 -44.199465 14.222671 57.805183 -45.061519 -43.326846 0.000000 0.000000 0.000000 -7.125000 0.000000 0.000000 87.774560 -82.215381 95.605280 0.000000 0.000000 0.000000 -10.625316 -10.641211 42.108889 -131.293540 -52.460308 -94.855184 -37.146599 -40.113776 -4.269432 0.000000 0.000000 0.000000 7.125000 0.000000 0.000000 -7.840233 24.629682 -3.894562
7.191888 18.778181 -2.658474 186.134329 -37.986753 -174.550282 0.000000 0.000000 0.000000 -15.287671 -2.746364 -20.751597 2.771836 10.316024 30.006509 0.990728 0.317488 -18.932605 0.016161 -0.818095 -2.248420 0.000000 0.000000 0.000000 6.323488 26.581308 -21.409628 -1.307792 -7.244036 20.440439 0.983665 -17.307797 -8.187961 -0.010715 0.616509 -1.694340 -8.412831 3.415028 12.136235 -6.071525 2.574147 6.943922 -1.954414 0.741883 0.402204 -6.248060 5.397926 -6.278954 3.750476 6.435084 24.376096 2.794460 2.411327 8.219971 0.000000 0.000000 0.000000 3.864302 -26.217252 -48.421859 28.745429 -39.791617 10.598075 53.833564 -52.358259 -44.176553 0.000000 0.000000 0.000000 -7.125000 0.000000 0.000000 79.227103 83.878003 -73.127093 0.000000 0.000000 0.000000 -9.563414 -10.492368 49.992398 -130.978027 -52.593383 -94.604802 -37.449312 -32.894464 -5.586258 0.000000 0.000000 0.000000 7.125000 0.000000 0.000000 -7.898628 22.972987 -4.228393
7.271777 18.687419 -3.034704 185.853614 -36.867247 -174.627646 0.000000 0.000000 0.000000 -14.506576 -2.628631 -20.209949 3.076972 10.818582 31.670486 1.202558 0.614107 -20.961559 0.015856 -0.812445 -2.232792 0.000000 0.000000 0.000000 8.539894 25.910532 -22.097458 -1.487210 -7.704547 21.820125 0.889439 -16.648206 -9.194655 -0.001879 0.136778 -0.375778 -9.470140 3.171965 11.675308 -6.096157 2.184823 7.050150 -1.337136 0.490217 0.743780 -5.978621 5.630511 -6.550456 3.788173 6.705982 24.472433 2.793705 2.554822 8.294850 0.000000 0.000000 0.000000 3.777393 -27.313903 -48.632889 25.250179 -36.458599 8.438078 47.764369 -60.691792 -43.633623 0.000000 0.000000 0.000000 -7.125000 0.000000 0.000000 37.850157 83.499318 -33.678450 0.000000 0.000000 0.000000 -9.252954 -11.260917 54.792090 -130.951899 -52.604312 -94.584068 -38.478288 -28.023880 -6.576444 0.000000 0.000000 0.000000 7.125000 0.000000 0.000000 -8.506217 21.637169 -4.822077
